# Exported from Wings 3D 1.5.4
mtllib Arrow.mtl
o Cube1
#16 vertices, 14 faces
v -1.9559520e-2 -1.9559520e-2 -0.19182184
v -1.9559520e-2 1.9559520e-2 -0.19182184
v 1.9559520e-2 -1.9559520e-2 -0.19182184
v 1.9559520e-2 1.9559520e-2 -0.19182184
v -1.9559520e-2 -1.9559520e-2 0.30825732
v -1.9559520e-2 1.9559520e-2 0.30825732
v 1.9559520e-2 -1.9559520e-2 0.30825732
v 1.9559520e-2 1.9559520e-2 0.30825732
v -5.9522733e-2 5.9522733e-2 0.30825732
v -5.9522733e-2 -5.9522733e-2 0.30825732
v 5.9522733e-2 -5.9522733e-2 0.30825732
v 5.9522733e-2 5.9522733e-2 0.30825732
v 0.0000000e+0 0.0000000e+0 0.44422872
v 0.0000000e+0 0.0000000e+0 0.44422872
v 0.0000000e+0 0.0000000e+0 0.44422872
v 0.0000000e+0 0.0000000e+0 0.44422872
vn -0.57735027 -0.57735027 -0.57735027
vn -0.57735027 0.57735027 -0.57735027
vn 0.57735027 -0.57735027 -0.57735027
vn 0.57735027 0.57735027 -0.57735027
vn -0.40824829 -0.40824829 -0.81649658
vn -0.40824829 0.40824829 -0.81649658
vn 0.40824829 -0.40824829 -0.81649658
vn 0.40824829 0.40824829 -0.81649658
vn -0.51916482 0.51916482 -0.67892251
vn -0.51916482 -0.51916482 -0.67892251
vn 0.51916482 -0.51916482 -0.67892251
vn 0.51916482 0.51916482 -0.67892251
vn -0.60121818 0.60121818 0.52637761
vn -0.60121818 -0.60121818 0.52637761
vn 0.60121818 -0.60121818 0.52637761
vn 0.60121818 0.60121818 0.52637761
g Cube1_default
usemtl default
s 1
f 1//1 3//3 7//7 5//5
f 2//2 4//4 3//3 1//1
f 3//3 4//4 8//8 7//7
f 5//5 6//6 2//2 1//1
f 5//5 7//7 11//11 10//10
f 6//6 8//8 4//4 2//2
f 6//6 9//9 12//12 8//8
f 7//7 8//8 12//12 11//11
f 9//9 13//13 16//16 12//12
f 10//10 9//9 6//6 5//5
f 10//10 14//14 13//13 9//9
f 11//11 15//15 14//14 10//10
f 12//12 16//16 15//15 11//11
f 14//14 15//15 16//16 13//13
